# xmcd CD database file
#
# Track frame offsets:
#	225
#	76527
#	137720
#	172430
#	234965
#
# Disc length: 3541 seconds
#
# Revision: 0
# Processed by: cddbd v1.5.2PL0 Copyright (c) Steve Scherf et al.
# Submitted via: CDex 1.50Beta7
#
DISCID=370dd205
DTITLE=Various Artist - Jazz A go-go 013
DYEAR=1995
DGENRE=Jazz
TTITLE0=Joe Zavinul Syndicate - Botta
TTITLE1=Mark Whitfield - Blues For Davis Alexander
TTITLE2=Mark Whitfield - Bolivar Blues
TTITLE3=Wallace Roney Quartet - Night And Day
TTITLE4=Wallace Roney Quartet - Silo
EXTD=YEAR: 1995
EXTT0=
EXTT1=
EXTT2=
EXTT3=
EXTT4=
PLAYORDER=
